<svg width="33" height="32" viewBox="0 0 33 32" fill="none" xmlns="http://www.w3.org/2000/svg">
<path d="M30.868 0H2.13201C1.69917 0 1.28405 0.171956 0.97799 0.478017C0.671929 0.784078 0.5 1.1992 0.5 1.63203V15.3147C0.5 15.7476 0.671929 16.1627 0.97799 16.4688C1.28405 16.7748 1.69917 16.9467 2.13201 16.9467H8.02889V30.368C8.02889 30.8008 8.20082 31.2159 8.50688 31.522C8.81294 31.828 9.22806 32 9.6609 32H23.3436C23.5577 32 23.7697 31.9578 23.9675 31.8757C24.1652 31.7936 24.3449 31.6733 24.496 31.5217C24.6472 31.3701 24.767 31.1902 24.8485 30.9922C24.93 30.7942 24.9717 30.5821 24.9711 30.368V16.9467H30.868C31.3008 16.9467 31.716 16.7748 32.022 16.4688C32.3281 16.1627 32.5 15.7476 32.5 15.3147V1.63203C32.5 1.1992 32.3281 0.784078 32.022 0.478017C31.716 0.171956 31.3008 0 30.868 0ZM2.3935 1.8935H15.5533V15.0533H2.3935V1.8935ZM23.0821 30.1065H9.91787V16.9467H23.0821V30.1065ZM30.6155 15.0533H17.4467V1.8935H30.6155V15.0533Z" fill="white"/>
<path d="M11.4397 10.0264C11.5286 10.1076 11.6339 10.172 11.7498 10.2157C11.8657 10.2594 11.9898 10.2816 12.115 10.281C12.2396 10.2817 12.363 10.2595 12.4782 10.2158C12.5933 10.1721 12.6979 10.1077 12.7858 10.0264C12.8762 9.94475 12.948 9.84733 12.9971 9.73982C13.0462 9.63231 13.0714 9.51685 13.0714 9.40023C13.0714 9.28361 13.0462 9.16818 12.9971 9.06067C12.948 8.95316 12.8762 8.85572 12.7858 8.7741L9.7492 5.9774C9.66059 5.8941 9.55482 5.8279 9.43809 5.78273C9.32135 5.73755 9.196 5.71429 9.06938 5.71429C8.94276 5.71429 8.81743 5.73755 8.7007 5.78273C8.58396 5.8279 8.47817 5.8941 8.38955 5.9774L5.35303 8.7741C5.17273 8.94016 5.07143 9.16539 5.07143 9.40023C5.07143 9.63508 5.17273 9.8603 5.35303 10.0264C5.53333 10.1924 5.77787 10.2857 6.03285 10.2857C6.28784 10.2857 6.53238 10.1924 6.71268 10.0264L9.07845 7.84744L11.4397 10.0264Z" fill="white"/>
<path d="M21.5517 10.0228L23.9175 7.84569L26.2833 10.0228C26.3719 10.1061 26.4776 10.1722 26.5944 10.2173C26.7111 10.2625 26.8365 10.2857 26.9631 10.2857C27.0897 10.2857 27.2151 10.2625 27.3318 10.2173C27.4485 10.1722 27.5543 10.1061 27.6429 10.0228C27.7333 9.94128 27.8052 9.84395 27.8543 9.73652C27.9033 9.6291 27.9286 9.51374 27.9286 9.39721C27.9286 9.28069 27.9033 9.16536 27.8543 9.05793C27.8052 8.9505 27.7333 8.85315 27.6429 8.7716L24.6064 5.97718C24.5177 5.89395 24.412 5.82781 24.2952 5.78267C24.1785 5.73753 24.0531 5.71429 23.9265 5.71429C23.7999 5.71429 23.6746 5.73753 23.5578 5.78267C23.4411 5.82781 23.3353 5.89395 23.2467 5.97718L20.2102 8.7716C20.0299 8.93752 19.9286 9.16256 19.9286 9.39721C19.9286 9.63187 20.0299 9.85691 20.2102 10.0228C20.3905 10.1888 20.635 10.282 20.89 10.282C21.145 10.282 21.3895 10.1888 21.5698 10.0228H21.5517Z" fill="white"/>
<path d="M13.8041 21.9736C13.5981 21.8076 13.3186 21.7143 13.0272 21.7143C12.7359 21.7143 12.4564 21.8076 12.2504 21.9736C12.0443 22.1395 11.9286 22.3647 11.9286 22.5994C11.9286 22.8342 12.0443 23.0593 12.2504 23.2253L15.7257 26.0209C15.8266 26.1047 15.9474 26.1713 16.0808 26.2168C16.2143 26.2623 16.3577 26.2857 16.5026 26.2857C16.6475 26.2857 16.7909 26.2623 16.9244 26.2168C17.0578 26.1713 17.1786 26.1047 17.2795 26.0209L20.7496 23.2253C20.9557 23.0593 21.0714 22.8342 21.0714 22.5994C21.0714 22.3647 20.9557 22.1395 20.7496 21.9736C20.5436 21.8076 20.2641 21.7143 19.9727 21.7143C19.6813 21.7143 19.4019 21.8076 19.1958 21.9736L16.5078 24.1349L13.8041 21.9736Z" fill="white"/>

</svg>
